<?xml version="1.0" standalone="no"?>
<!DOCTYPE svg PUBLIC "-//W3C//DTD SVG 1.1//EN" "http://www.w3.org/Graphics/SVG/1.1/DTD/svg11.dtd" >
<svg xmlns="http://www.w3.org/2000/svg">
<metadata>Generated by IcoMoon</metadata>
<defs>
<font id="icomoon" horiz-adv-x="1024">
<font-face units-per-em="1024" ascent="960" descent="-64" />
<missing-glyph horiz-adv-x="1024" />
<glyph unicode="&#x20;" horiz-adv-x="512" d="" />
<glyph unicode="&#x65;" glyph-name="envelope" horiz-adv-x="1051" d="M54.658 116.271c-12.402 5.632-28.489 18.572-35.752 28.757l-13.207 18.52v567.415l14.818 19.423c30.189 39.582 1.791 37.478 504.989 37.478s474.795 2.105 504.989-37.478l14.818-19.426v-567.41l-13.207-18.52c-7.263-10.184-23.35-23.125-35.752-28.757-21.398-9.714-45.407-10.24-470.839-10.24s-449.442 0.524-470.839 10.24zM974.988 143.218c4.478 2.849-43.782 54.578-145.765 156.262l-152.464 152.005-71.504-59.81c-39.33-32.895-75.222-59.81-79.756-59.81s-40.427 26.915-79.756 59.81l-71.504 59.81-152.464-152.005c-101.983-101.682-150.242-153.413-145.765-156.262 3.687-2.34 205.958-4.257 449.491-4.257s445.809 1.913 449.491 4.257zM342.615 474.881c-0.759 1.849-67.913 58.428-149.221 125.736-110.711 91.641-149.023 120.507-152.554 114.932-5.421-8.56-6.705-521.604-1.338-535.593 2.733-7.127 38.036 25.231 154.025 141.158 82.766 82.724 149.857 151.915 149.092 153.767zM1014.88 446.826c0 143.701-2.126 264.63-4.716 268.722-3.537 5.576-41.838-23.263-152.554-114.848-81.314-67.263-148.961-123.309-150.341-124.545s65.359-70.142 148.297-153.127c100.915-100.968 152.208-148.66 155.057-144.178 2.34 3.687 4.257 124.273 4.257 267.974zM754.983 559.578c139.628 115.525 223.601 188.562 219.672 191.063-8.305 5.29-890.005 5.291-898.255 0.010-3.873-2.481 81.087-76.593 220.024-191.94 124.483-103.345 227.722-187.5 229.428-187.021s104.817 85.032 229.132 187.889z" />
<glyph unicode="&#x66;" glyph-name="fb" horiz-adv-x="1028" d="M402.991-45.093c-2.318 1.344-6.429 3.126-9.134 3.962-4.626 1.429-4.918 13.873-4.918 209.433v207.913l-70.51 0.84c-70.246 0.837-70.53 0.865-75.878 7.474-5.048 6.239-5.368 12.316-5.368 101.873 0 91.492 0.221 95.46 5.621 100.859 5.321 5.321 9.368 5.621 75.878 5.621h70.257l0.016 66.744c0.019 73.775 3.608 106.844 15.301 140.965 19.405 56.624 57.072 99.269 110.939 125.599 27.595 13.487 46.854 15.447 167.831 17.077l95.961 1.292 5.912-6.346c5.73-6.151 5.911-8.859 5.87-88.017-0.032-62.372-0.965-84.328-3.949-92.912l-3.906-11.241-64.201-1.439c-67.889-1.521-77.499-3.274-89.058-16.255-10.754-12.076-12.83-25.112-12.958-81.37l-0.123-54.098h79.864c43.925 0 81.864-0.767 84.308-1.706 3.942-1.512 4.446-13.396 4.446-104.935v-103.229l-7.158-3.261c-4.877-2.222-31.746-3.261-84.308-3.261h-77.151v-208.050c0-195.69-0.293-208.14-4.918-209.572-2.705-0.837-7.114-2.694-9.798-4.127-6.182-3.301-193.153-3.143-198.866 0.168z" />
<glyph unicode="&#x6c;" glyph-name="lock" horiz-adv-x="1027" d="M150.793-45.847c-6.874 3.393-16.090 12.106-20.48 19.363-7.664 12.669-8.028 23.921-9.146 282.573-0.779 180.258 0.27 274.705 3.172 285.481 7.992 29.681 30.656 45.312 74.21 51.181l18.874 2.543 2.342 52.060c2.685 59.697 9.36 88.985 29.837 130.928 36.542 74.848 100.356 129.402 184.025 157.324 41.399 13.816 118.345 13.816 159.744 0 83.623-27.907 150.090-84.853 184.843-158.368 19.775-41.831 26.39-71.439 29.019-129.884l2.342-52.060 18.874-2.543c43.554-5.869 66.218-21.5 74.21-51.181 2.902-10.775 3.951-105.222 3.172-285.481-1.119-259.004-1.473-269.888-9.176-282.624-16.263-26.887 1.913-25.676-383.775-25.573-302.963 0.081-351.256 0.916-362.087 6.262zM850.768-6.926c5.882 4.626 12.677 15.225 15.101 23.552 2.994 10.285 4.011 95.037 3.171 264.31l-1.237 249.17-26.753 23.901h-655.102l-26.753-23.901-1.237-249.17c-0.84-169.273 0.177-254.024 3.171-264.31 2.424-8.327 9.219-18.926 15.101-23.552 10.584-8.325 14.052-8.412 337.269-8.412s326.685 0.086 337.269 8.412zM488.923 167.623c-25.913 10.659-45.056 38.899-45.056 66.465 0 21.274 6.006 36.508 20.354 51.63 11.252 11.858 11.71 13.985 13.102 60.806 1.405 47.251 1.742 48.776 12.894 58.368 14.631 12.585 31.933 12.585 46.564 0 11.152-9.592 11.488-11.117 12.894-58.368 1.392-46.821 1.851-48.948 13.102-60.806 21.872-23.051 26.633-55.602 12.255-83.786-11.808-23.147-29.754-34.356-57.169-35.71-12.538-0.619-25.561 0.012-28.94 1.401zM768.314 638.998c-0.766 24.218-4.2 54.091-7.633 66.385-22.589 80.909-93.089 156.471-177.508 190.251-26.638 10.659-35.978 12.309-69.674 12.309s-43.036-1.65-69.674-12.309c-84.419-33.78-154.919-109.342-177.508-190.251-3.432-12.294-6.867-42.167-7.633-66.385l-1.392-44.032h512.414l-1.392 44.032z" />
<glyph unicode="&#xe900;" glyph-name="circle-x" d="M464.462-42.557c-115.194 9.973-216.68 57.9-300.862 142.082-68.897 68.897-116.408 156.073-135.466 248.56-11.008 53.423-11.008 146.257 0 199.68 23.971 116.33 93.105 224.501 188.895 295.554 99.231 73.606 213.346 105.539 340.769 95.358 212.089-16.946 394.562-179.776 438.069-390.913 11.008-53.423 11.008-146.257 0-199.68-50.881-246.925-276.416-412.719-531.404-390.642zM415.951 298.115l96.049 95.949 96.049-95.949c80.642-80.558 98.441-95.949 110.957-95.949 8.199 0 19.121 3.813 24.271 8.474 21.184 19.171 14.25 29.599-87.779 132.027l-97.142 97.521 97.142 97.608c76.537 76.904 97.142 100.453 97.142 111.018 0 17.127-22.753 36.123-37.925 31.66-5.894-1.733-53.915-46.103-106.715-98.599l-96-95.448-96.69 96.589c-102.437 102.331-111.164 108.033-133.88 87.476-21.969-19.882-15.586-29.609 87.072-132.667l97.142-97.521-97.142-97.608c-101.106-101.59-107.233-110.654-88.669-131.167 4.721-5.217 15.469-9.363 24.271-9.363 13.671 0 28.726 12.916 111.846 95.949zM428.338-38.561c-186.481 33.783-333.811 166.403-390.924 351.89-12.818 41.628-13.855 51.703-13.855 134.596s1.037 92.968 13.855 134.596c51.681 167.845 172.153 288.309 340.023 339.999 41.59 12.806 51.685 13.845 134.563 13.845s92.973-1.039 134.563-13.845c167.87-51.691 288.342-172.154 340.023-339.999 12.818-41.628 13.855-51.703 13.855-134.596s-1.037-92.968-13.855-134.596c-51.884-168.507-173.643-290.090-339.99-339.5-37.397-11.108-57.534-13.662-119.236-15.122-40.832-0.966-85.392 0.263-99.022 2.732zM416 298.617l96 95.448 96.903-96.803c85.58-85.491 98.827-96.803 113.365-96.803 18.835 0 30.372 12.222 30.372 32.176 0 10.251-21.455 34.585-97.281 110.332l-97.281 97.18 97.281 97.377c78.261 78.338 97.281 100.082 97.281 111.21 0 15.949-17.657 34.711-32.666 34.711-6.475 0-46.696-36.266-109.115-98.387l-98.859-98.387-98.859 98.387c-54.372 54.113-101.756 98.387-105.297 98.387-8.519 0-27.838-10.326-32.566-17.406-12.79-19.155-4.005-31.248 93.363-128.515l97.281-97.18-97.281-97.377c-75.394-75.468-97.281-100.314-97.281-110.431 0-22.534 17.672-37.249 38.4-31.973 5.632 1.434 53.44 45.558 106.24 98.054zM419.84-36.265c-189.288 39.718-333.949 174.891-385.115 359.858-15.947 57.648-16.007 190.816-0.112 248.229 48.123 173.823 180.816 305.96 354.506 353.021 63.037 17.080 182.723 17.080 245.76 0 173.69-47.061 306.383-179.198 354.506-353.021 15.895-57.413 15.835-190.581-0.112-248.229-47.683-172.376-180.46-305.219-351.835-352.007-52.151-14.238-167.351-18.394-217.6-7.85zM413.141 295.433l98.859 98.387 99.502-99.027c92.568-92.126 100.507-98.785 113.92-95.547 17.668 4.265 27.218 15.98 27.218 33.39 0 10.241-20.973 34.104-94.72 107.769-52.096 52.039-94.72 96.967-94.72 99.84s42.624 47.801 94.72 99.84c83.477 83.386 94.72 96.563 94.72 111.018 0 17.781-14.785 32.342-32.84 32.342-6.25 0-47.659-37.398-108.941-98.387l-98.859-98.387-98.859 98.387c-61.282 60.989-102.691 98.387-108.941 98.387-18.055 0-32.84-14.561-32.84-32.342 0-14.455 11.243-27.632 94.72-111.018 52.096-52.039 94.72-96.967 94.72-99.84s-42.624-47.801-94.72-99.84c-73.747-73.666-94.72-97.529-94.72-107.769 0-20.199 13.944-34.004 35.541-35.186 4.060-0.222 51.868 43.87 106.24 97.983zM445.44-40.524c-116.359 21.37-196.251 60.762-272.698 134.457-69.637 67.13-112.996 139.948-137.819 231.454-16.959 62.518-16.959 182.558 0 245.076 24.304 89.592 69.228 165.551 135.31 228.784 68.133 65.195 132.68 102.198 218.889 125.482 63.002 17.017 182.753 17.017 245.755 0 86.295-23.308 150.749-60.281 219.092-125.678 66.584-63.713 110.569-138.132 135.106-228.588 16.959-62.518 16.959-182.558 0-245.076-24.858-91.637-68.176-164.318-138.117-231.742-64.649-62.322-131.984-99.78-223.759-124.476-29.97-8.065-154.475-14.705-181.76-9.694zM413.141 295.433l98.859 98.387 98.859-98.387c61.282-60.989 102.691-98.387 108.941-98.387 18.055 0 32.84 14.561 32.84 32.342 0 14.455-11.243 27.632-94.72 111.018-52.096 52.039-94.72 96.967-94.72 99.84s42.624 47.801 94.72 99.84c83.477 83.386 94.72 96.563 94.72 111.018 0 17.873-14.804 32.342-33.091 32.342-6.589 0-46.061-35.693-108.941-98.511l-98.608-98.511-98.608 98.511c-62.88 62.818-102.352 98.511-108.941 98.511-18.287 0-33.091-14.469-33.091-32.342 0-14.455 11.243-27.632 94.72-111.018 52.096-52.039 94.72-96.967 94.72-99.84s-42.624-47.801-94.72-99.84c-83.477-83.386-94.72-96.563-94.72-111.018 0-17.781 14.785-32.342 32.84-32.342 6.25 0 47.659 37.398 108.941 98.387zM424.419-35.626c-98.223 17.783-184.754 63.826-258.449 137.521-101.458 101.458-150.95 228.453-143.833 369.070 19.227 379.888 442.504 595.708 759.176 387.087 221.367-145.835 287.463-440.727 149.439-666.73-34.598-56.652-105.497-127.551-162.149-162.149-101.611-62.056-227.953-85.843-344.183-64.8zM413.392 295.556l98.608 98.511 98.608-98.511c102.143-102.042 109.98-107.403 130.935-89.551 10.536 8.976 12.836 15.709 11.704 34.253-0.339 5.553-42.886 52.426-96.493 106.303l-95.886 96.37 96.526 96.626c103.867 103.975 110.317 114.181 85.079 134.617-24.327 19.699-31.538 15.045-133.918-86.438l-96.554-95.708-96.554 95.708c-102.381 101.483-109.591 106.137-133.918 86.438-25.238-20.437-18.788-30.643 85.079-134.617l96.526-96.626-95.886-96.37c-53.607-53.877-96.154-100.75-96.493-106.303-1.133-18.545 1.168-25.278 11.704-34.253 20.954-17.852 28.792-12.492 130.935 89.551zM428.748-35.843c-126.933 24.072-233.957 89.38-309.227 188.699-32.419 42.776-70.663 124.255-84.444 179.905-16.022 64.702-16.084 165.387-0.141 229.735 36.117 145.772 132.784 264.101 268.134 328.217 72.063 34.136 124.955 45.708 208.93 45.708s136.867-11.571 208.93-45.708c135.329-64.106 231.892-182.29 268.173-328.217 16.685-67.109 15.714-169.999-2.244-237.75-46.658-176.030-182.252-309.302-359.659-353.5-54.903-13.678-146.461-16.949-198.452-7.089zM415.693 292.868l96.307 95.823 96.307-95.823c83.685-83.265 98.398-95.823 112.268-95.823 20.766 0 39.213 21.705 34.624 40.738-1.825 7.569-42.68 52.704-97.571 107.793l-94.432 94.771 91.969 91.863c50.583 50.524 94.7 98.456 98.038 106.515 5.2 12.555 4.606 16.621-4.153 28.406-6.701 9.016-15.988 14.322-26.959 15.403-15.601 1.537-23.296-4.877-113.414-94.543l-96.678-96.192-96.678 96.192c-90.118 89.666-97.813 96.080-113.414 94.543-10.971-1.081-20.257-6.387-26.959-15.403-8.759-11.785-9.354-15.851-4.153-28.406 3.338-8.059 47.455-55.99 98.038-106.515l91.969-91.863-94.432-94.771c-54.891-55.088-95.746-100.224-97.571-107.793-4.589-19.033 13.858-40.738 34.624-40.738 13.87 0 28.583 12.558 112.268 95.823zM451.007-37.866c-159.065 18.441-304.136 121.362-378.025 268.191-40.252 79.987-58.361 182.335-47.751 269.876 25.231 208.183 165.282 369.412 366.449 421.864 73.137 19.070 167.177 19.11 240.64 0.103 163.241-42.235 294.326-164.949 345.253-323.203 56.936-176.93 11.033-367.279-119.872-497.080-81.166-80.482-178.789-127.355-291.941-140.175-51.635-5.85-60.933-5.816-114.753 0.424zM415.693 292.868l96.307 95.823 96.307-95.823c81.457-81.048 98.628-95.811 111.36-95.745 8.279 0.041 17.589 1.771 20.687 3.84 10.078 6.729 18.344 27.493 15.446 38.798-1.557 6.074-45.503 53.618-97.658 105.654l-94.827 94.611 97.222 97.688c53.472 53.729 97.222 101.737 97.222 106.686 0 10.691-9.489 29.839-17.406 35.126-3.098 2.069-12.408 3.797-20.687 3.84-12.732 0.066-29.903-14.696-111.36-95.745l-96.307-95.823-96.307 95.823c-81.457 81.048-98.628 95.811-111.36 95.745-8.279-0.043-17.589-1.771-20.687-3.84-7.918-5.287-17.406-24.435-17.406-35.126 0-4.949 43.75-52.957 97.222-106.686l97.222-97.688-94.827-94.611c-52.155-52.036-96.101-99.58-97.658-105.654-2.898-11.305 5.368-32.069 15.446-38.798 3.098-2.069 12.408-3.797 20.687-3.84 12.732-0.066 29.903 14.696 111.36 95.745z" />
<glyph unicode="&#xe901;" glyph-name="eye" horiz-adv-x="1044" d="M423.387 172.535c-124.383 19.416-241.695 78.421-329.691 165.848-45.205 44.918-90.714 104.862-90.714 119.507 0 27.58 98.993 136.056 166.688 182.653 110.725 76.214 213.807 107.736 352.33 107.736s241.604-31.521 352.33-107.736c67.695-46.592 166.688-155.069 166.688-182.653 0-25.905-97.662-135.133-161.242-180.333-127.688-90.789-297.381-129.837-456.394-105.022zM580.685 229.483c120.101 31.281 198.141 145.062 179.748 262.061-21.762 138.421-161.934 229.972-297.904 194.556-118.855-30.958-199.056-146.82-180.242-260.369 23.167-139.807 162.719-231.58 298.392-196.241zM477.888 278.485c-73.547 17.886-132.722 81.274-141.999 152.111-7.987 60.986 9.523 113.235 52.313 156.063 112.538 112.653 310.196 41.009 319.489-115.8 2.745-46.291-3.070-70.689-25.944-108.815-38.878-64.816-129.011-101.768-203.863-83.561zM572.816 396.645c39.216 31.54 41.855 80.181 6.281 115.747-71.858 71.858-185.986-26.777-120.723-104.339 29.304-34.832 79.143-39.795 114.436-11.408z" />
<glyph unicode="&#xe902;" glyph-name="face-happy" d="M443.314-48.138c-207.035 32.648-363.074 172.578-416.515 373.514-11.021 41.44-12.952 59.765-12.952 122.939 0 64.048 1.865 81.269 13.582 125.44 71.048 267.835 341.275 426.699 609.905 358.555 173.311-43.964 312.69-183.078 359.238-358.555 11.717-44.171 13.582-61.392 13.582-125.44 0-63.174-1.931-81.499-12.952-122.939-40.097-150.765-140.671-270.917-279.44-333.838-76.281-34.588-196.501-51.967-274.447-39.676zM557.65 18.436c151.565 15.553 273.332 97.104 337.749 226.199 14.447 28.952 29.742 66.464 33.989 83.36 33.86 134.711 9.838 272.056-66.189 378.426-165.106 231.002-538.025 231.243-701.934 0.454-29.659-41.761-51.436-86.542-63.918-131.437-43.819-157.607-5.678-319.129 101.762-430.944 66.748-69.467 161.524-115.431 259.22-125.714 22.479-2.366 42.355-4.609 44.169-4.983s26.632 1.714 55.153 4.64zM444.889 215.096c-58.353 16.092-119.201 65.054-142.399 114.582-11.57 24.703-11.746 26.603-3.608 39.022 8.37 12.774 25.335 16.973 36.918 9.136 3.058-2.069 13.8-16.738 23.87-32.598 19.352-30.477 37.848-46.782 75.529-66.579 19.976-10.495 30.19-12.105 76.8-12.105s56.824 1.61 76.8 12.105c37.681 19.797 56.178 36.102 75.529 66.579 10.070 15.86 20.812 30.529 23.87 32.598 11.721 7.929 28.557 3.625 37.155-9.498 8.521-13.005 8.335-14.287-6.052-41.766-27.622-52.757-82.473-95.763-142.536-111.755-32.388-8.624-100.114-8.48-131.878 0.279zM354.887 535.1c-20.713 12.63-27.207 24.925-27.207 51.512 0 16.53 3.245 24.455 14.704 35.914 26.303 26.303 56.929 26.303 83.232 0 26.429-26.429 18.269-72.002-16.073-89.761-19.838-10.259-35.070-9.608-54.657 2.334zM625.134 531.59c-44.327 22.781-43.094 83.1 2.139 104.67 35.306 16.836 79.215-11.547 79.268-51.24 0.057-42.79-44.811-72.238-81.407-53.43z" />
<glyph unicode="&#xe903;" glyph-name="mobile-menu" d="M63.33 848.855c-33.545 0-60.55-22.764-60.55-51.030v-23.82c0-28.266 27.005-51.020 60.55-51.020h897.34c33.545 0 60.55 22.754 60.55 51.020v23.82c0 28.266-27.005 51.030-60.55 51.030h-897.34zM63.33 510.935c-33.545 0-60.55-22.764-60.55-51.030v-23.82c0-28.266 27.005-51.020 60.55-51.020h897.34c33.545 0 60.55 22.754 60.55 51.020v23.82c0 28.266-27.005 51.030-60.55 51.030h-897.34zM63.33 173.015c-33.545 0-60.55-22.764-60.55-51.030v-23.82c0-28.266 27.005-51.020 60.55-51.020h897.34c33.545 0 60.55 22.754 60.55 51.020v23.82c0 28.266-27.005 51.030-60.55 51.030h-897.34z" />
<glyph unicode="&#xe904;" glyph-name="camera" horiz-adv-x="1035" d="M88.543 18.159c-29.061 10.359-55.409 33.784-70.091 62.316l-12.885 25.040v259.964c0 258.548 0.062 260.078 11.399 281.277 14.417 26.958 46.96 55.022 72.766 62.754 10.962 3.284 47.044 5.972 80.183 5.972 71.174 0 58.613-8.693 143.22 99.117l55.461 70.67h297.808l55.461-70.67c84.607-107.81 72.047-99.117 143.22-99.117 33.139 0 69.222-2.687 80.183-5.972 25.807-7.732 58.349-35.796 72.766-62.754 11.337-21.197 11.399-22.728 11.399-281.277v-259.964l-13.144-25.54c-14.794-28.746-47.090-56.033-75.739-63.989-12.486-3.468-160.795-5.254-425.625-5.125-332.211 0.161-410.1 1.494-426.385 7.299zM936.584 58.312c25.113 14.224 52.155 48.841 59.52 76.194 3.67 13.63 5.018 95.545 3.999 242.888-1.511 218.304-1.742 222.648-12.777 240.33-6.181 9.905-18.915 25.415-28.298 34.469-28.575 27.57-47.173 32.418-124.372 32.418h-69.053l-127.922 162.070-238.326 2.762-130.449-164.832-69.929-0.113c-56.674-0.092-73.868-1.902-90.709-9.551-25.851-11.743-62.287-52.393-69.17-77.17-3.098-11.152-5.189-106.584-5.207-237.581l-0.031-218.942 12.826-25.737c7.054-14.155 19.209-31.828 27.012-39.273 32.681-31.182 8.326-29.563 443.8-29.505l398.743 0.053 20.341 11.521zM468.676 150.101c-88.399 17.974-167.354 93.186-191.133 182.073-11.142 41.652-8.813 107.454 5.212 147.181 28.579 80.959 98.675 145.35 178.151 163.655 153.002 35.238 303.559-85.684 303.559-243.805 0-135.769-100.664-244.204-234.101-252.175-19.808-1.184-47.568 0.198-61.689 3.069zM559.694 186.179c52.747 11.192 101.574 44.103 132.83 89.531 40.832 59.347 47.732 148.865 16.483 213.837-21.115 43.903-58.701 81.782-102.583 103.385-32.616 16.055-37.912 17.075-88.815 17.075-50.203 0-56.648-1.192-88.813-16.429-132.176-62.612-165.799-237.349-65.982-342.891 53.316-56.373 124.811-79.799 196.88-64.508zM822.27 501.565c-17.852 16.359-19.219 19.681-19.219 46.701s1.367 30.341 19.219 46.701c16.291 14.93 22.974 17.613 43.875 17.613 38.923 0 62.961-24.556 62.961-64.314 0-39.133-26.116-64.314-66.706-64.314-16.636 0-24.84 3.6-40.13 17.613zM883.681 528.483c5.175 4.684 9.409 13.184 9.409 18.889 0 13.388-14.359 29.192-26.524 29.192-11.427 0-30.073-17.545-30.073-28.298 0-10.37 18.487-28.298 29.179-28.298 4.729 0 12.832 3.832 18.008 8.515z" />
<glyph unicode="&#xe905;" glyph-name="chat" horiz-adv-x="1051" d="M743.65 92.859l-73.316 71.063-602.121 2.713-21.939 12.897c-41.739 24.537-39.796 7.89-39.796 340.888v292.051l10.749 20.118c7.068 13.229 17.638 23.799 30.867 30.867l20.118 10.749h453.51c249.43 0 459.222-1.602 466.203-3.56 16.847-4.725 40.319-24.894 50.399-43.306 7.438-13.586 8.14-40.055 8.14-306.919v-292.051l-10.749-20.118c-16.505-30.893-39.193-40.351-103.222-43.032-30.969-1.297-53.657-4.354-55.726-7.509-1.919-2.927-3.522-34.705-3.562-70.618l-0.073-65.296h-56.168l-73.316 71.063zM845.694 125.083l1.321 65.296 59.36 2.374c67.239 2.69 85 9.338 101.931 38.158 9.419 16.033 9.666 23.425 9.666 289.508 0 265.442-0.268 273.519-9.606 289.676-5.716 9.89-18.216 20.985-30.867 27.398l-21.261 10.778-434.515-1.28c-427.296-1.259-434.788-1.441-450.967-10.946-9.049-5.316-20.802-17.069-26.118-26.118-9.419-16.033-9.666-23.425-9.666-289.508 0-265.442 0.268-273.519 9.606-289.676 5.689-9.843 18.202-20.978 30.686-27.306l21.080-10.685h601.904l69.545-66.483c38.25-36.566 71.128-66.483 73.062-66.483s4.112 29.383 4.838 65.296zM216.018 427.672c-22.099 7.877-47.193 31.17-57.909 53.751-5.559 11.714-7.267 25.18-5.906 46.558 1.579 24.793 4.458 33.236 16.389 48.061 28.108 34.927 61.145 48.537 101.334 41.747 23.054-3.895 44.367-17.893 63.565-41.747 19.444-24.161 23.312-67.912 8.56-96.827-24.53-48.082-76.32-69.262-126.033-51.542zM288.071 466.307c19.883 13.013 30.184 35.142 28.025 60.204-7.053 81.866-131.538 77.197-131.538-4.934 0-51.246 60.392-83.491 103.513-55.27zM477.202 427.672c-22.099 7.877-47.193 31.17-57.909 53.751-5.559 11.714-7.267 25.18-5.906 46.558 1.579 24.793 4.458 33.236 16.389 48.061 28.108 34.927 61.145 48.537 101.334 41.747 23.054-3.895 44.367-17.893 63.565-41.747 19.444-24.161 23.312-67.912 8.56-96.827-24.53-48.082-76.32-69.262-126.033-51.542zM549.255 466.307c19.883 13.013 30.184 35.142 28.025 60.204-7.053 81.866-131.538 77.197-131.538-4.934 0-51.246 60.392-83.491 103.513-55.27zM738.385 427.672c-22.099 7.877-47.193 31.17-57.909 53.751-5.559 11.714-7.267 25.18-5.906 46.558 1.579 24.793 4.458 33.236 16.389 48.061 28.108 34.927 61.145 48.537 101.334 41.747 23.054-3.895 44.367-17.893 63.565-41.747 19.444-24.161 23.312-67.912 8.56-96.827-24.53-48.082-76.32-69.262-126.033-51.542zM810.439 466.307c19.883 13.013 30.184 35.142 28.025 60.204-7.053 81.866-131.538 77.197-131.538-4.934 0-51.246 60.392-83.491 103.513-55.27z" />
<glyph unicode="&#xe906;" glyph-name="help" horiz-adv-x="1051" d="M222.965-50.651c-96.99 26.123-170.785 100.678-196.189 198.209-11.716 44.982-11.716 555.517 0 600.499 25.703 98.68 99.795 172.772 198.475 198.475 44.982 11.716 555.517 11.716 600.499 0 98.68-25.703 172.772-99.795 198.475-198.475 11.716-44.982 11.716-555.517 0-600.499-25.703-98.68-99.795-172.772-198.475-198.475-43.505-11.331-560.573-11.103-602.786 0.266zM852.185 11.522c42.62 19.975 84.131 60.878 105.993 104.438l17.991 35.848v592l-17.991 35.848c-21.761 43.36-60.497 81.535-104.676 103.157l-32 15.662h-592l-35.848-17.991c-43.36-21.761-81.535-60.497-103.157-104.676l-15.662-32v-592l17.991-35.848c28.729-57.246 83.083-101.879 142.009-116.612 8.8-2.2 144.4-3.597 301.333-3.103l285.333 0.897 30.683 14.381zM451.968 161.141l1.533 49.333h48l3.067-98.667h-54.134l1.533 49.333zM452.021 335.085c2.001 27.962 6.609 44.341 18.474 65.656 16.019 28.779 20.010 32.005 114.525 92.597 46.391 29.74 64.711 57.081 67.49 100.719 5.163 81.083-39.437 127.925-121.675 127.793-57.373-0.092-101.126-23.716-137.135-74.042l-11.448-16-19.659 10.506c-10.813 5.778-20.753 13.355-22.089 16.837-7.373 19.215 49.426 77.542 99.465 102.14 26.952 13.249 34.89 14.517 90.865 14.51 54.392-0.005 64.326-1.49 87.775-13.108 32.117-15.913 62.359-45.246 78.354-75.997 9.173-17.636 12.417-34.59 14.135-73.884 3.755-85.891-15.521-115.419-112.666-172.593-68.965-40.588-77.071-51.060-93.212-120.411-4.148-17.823-5.509-18.741-30.105-20.322l-25.76-1.656 2.666 37.256z" />
<glyph unicode="&#xe907;" glyph-name="home" horiz-adv-x="1051" d="M180.675 3c-28.142 10.299-45.762 27.046-60.326 57.337-8.365 17.397-9.132 30.723-9.227 160.253-0.080 108.724-1.471 141.736-6.034 143.266-3.261 1.094-15.254 4.379-26.651 7.3-26.513 6.796-65.058 41.995-72.241 65.97-7.274 24.277 1.009 51.463 23.017 75.551 9.769 10.692 110.623 98.527 224.119 195.189 183.5 156.282 209.207 176.588 232.092 183.33 29.422 8.668 66.846 6.6 91.351-5.048 17.899-8.508 414.291-343.909 441.472-373.544 33.763-36.812 33.831-71.058 0.214-108.447-20.243-22.515-29.446-27.231-68.973-35.345l-13.046-2.678-0.027-138.666c-0.016-86.736-1.994-145.773-5.28-157.642-7.274-26.277-43.071-61.374-69.991-68.623-13.72-3.694-53.807-5.066-118.587-4.058-97.446 1.517-97.957 1.58-120.501 14.831-12.452 7.319-28.462 22.1-35.579 32.847l-12.937 19.54-1.412 125.858c-0.931 82.916-3.201 128.013-6.655 132.175-3.798 4.576-16.485 5.942-46.026 4.957l-40.783-1.36-4.744-256.166-13.172-22.407c-8.541-14.53-21.048-27.037-35.579-35.579l-22.407-13.172-101.992-1.146c-77.835-0.875-106.282 0.423-120.097 5.479zM402.443 52.967c25.639 16.901 26.061 19.657 26.243 171.269 0.123 102.509 1.698 141.71 5.861 145.873 8.008 8.008 170.36 8.008 178.368 0 4.173-4.173 5.693-43.469 5.693-147.225 0-123.484 0.997-143.055 7.82-153.468 15.35-23.428 26.766-25.682 130.073-25.682h95.67l36.834 36.834v175.8c0 98.145 1.873 176.957 4.24 178.42 2.332 1.441 15.958-2.744 30.28-9.301 30.386-13.911 42.112-11.651 61.964 11.94 13.476 16.016 14.295 18.634 9.63 30.792-3.43 8.938-407.159 355.096-433.014 371.267-16.71 10.452-43.392 13.677-65.051 7.865-17.091-4.587-439.903-368.257-445.003-382.756-3.977-11.31-2.521-14.999 11.724-29.695 21.988-22.686 31.973-24.237 61.080-9.488 13.459 6.82 26.525 11.13 29.036 9.578 2.792-1.726 4.566-71.104 4.566-178.621v-175.8l36.834-36.834 96.62 0.032c87.516 0.027 97.931 0.895 110.532 9.202z" />
<glyph unicode="&#xe908;" glyph-name="login" horiz-adv-x="1051" d="M4.429 448v366.249h751.875l-2.028-267.94-18.312-1.175c-10.072-0.646-18.68-0.646-19.13 0s-1.751 52.354-2.891 114.905l-2.074 113.73h-666.959v-651.538h666.959l2.074 113.73c1.141 62.552 2.442 114.259 2.891 114.905s9.058 0.646 19.13 0l18.312-1.175 2.028-267.94h-751.875v366.249zM849.402 283.436c-4.61 4.908-8.383 11.711-8.383 15.118s26.89 31.818 59.756 63.135c32.866 31.317 59.756 59.2 59.756 61.963 0 4.074-54.806 5.21-290.108 6.012l-290.108 0.988v34.697l290.108 0.988c235.302 0.801 290.108 1.937 290.108 6.012 0 2.763-26.89 30.646-59.756 61.963s-59.756 59.97-59.756 63.675c0 3.704 4.401 10.87 9.781 15.924 9.017 8.471 10.512 8.745 19.135 3.513 8.728-5.296 176.636-170.038 174.473-171.183-0.543-0.287-40.283-39.044-88.309-86.125s-89.795-85.602-92.818-85.602c-3.023 0-9.269 4.015-13.879 8.923z" />
<glyph unicode="&#xe909;" glyph-name="logout" horiz-adv-x="1051" d="M295.711 215.721l1.014 133.97 18.312 1.175c10.072 0.646 18.68 0.646 19.13 0s1.751-52.354 2.891-114.905l2.074-113.73h666.959v651.538h-666.959l-2.074-113.73c-1.141-62.551-2.442-114.259-2.891-114.905s-9.058-0.646-19.13 0l-18.312 1.175-2.028 267.94h751.875v-732.499h-751.875l1.014 133.97zM94.902 360.116c-48.027 47.081-87.766 85.837-88.309 86.125-2.164 1.145 165.745 165.887 174.473 171.183 8.623 5.232 10.118 4.958 19.135-3.513 5.38-5.054 9.781-12.22 9.781-15.924s-26.89-32.358-59.756-63.675c-32.866-31.317-59.756-59.2-59.756-61.963 0-4.074 54.806-5.21 290.108-6.012l290.108-0.988v-34.697l-290.108-0.988c-235.302-0.801-290.108-1.937-290.108-6.012 0-2.763 26.89-30.646 59.756-61.963s59.756-59.971 59.756-63.675c0-7.676-15.354-23.5-22.802-23.5-2.726 0-44.251 38.521-92.278 85.602z" />
<glyph unicode="&#xe90a;" glyph-name="user" horiz-adv-x="1051" d="M158.049-35.434c-69.238 17.111-98.684 65.709-98.879 163.192-0.373 185.842 114.801 280.486 360.997 296.65 23.738 1.559 43.16 4.187 43.16 5.841s-11.57 6.958-25.711 11.787c-38.25 13.061-68.639 33.168-99.957 66.138-47.933 50.462-72.237 111.299-72.237 180.823 0 93.082 54.198 185.303 132.897 226.134 49.903 25.891 69.91 30.874 123.957 30.874s74.054-4.983 123.957-30.874c78.699-40.83 132.897-133.052 132.897-226.134 0-69.523-24.304-130.361-72.237-180.823-31.318-32.97-61.707-53.078-99.957-66.138-14.141-4.828-25.711-10.132-25.711-11.787s19.422-4.283 43.16-5.841c216.025-14.183 327.658-86.254 355.134-229.278 12.684-66.027 4.369-144.963-19.089-181.197-34.738-53.661-90.771-63.938-252.884-46.38-121.511 13.16-249.628 13.26-368.31 0.286-92.88-10.153-149.23-11.171-181.19-3.272zM349.637 11.281c62.78 6.153 134.479 10.523 172.64 10.523s109.859-4.37 172.64-10.523c150.953-14.794 184.435-13.379 213.824 9.038 25.682 19.589 32.265 41.401 32.22 106.757-0.060 85.633-15.41 127.653-62.788 171.879-41.107 38.372-94.643 60.534-181.396 75.091-66.866 11.22-282.134 11.22-349 0-86.753-14.557-140.289-36.719-181.396-75.091-47.378-44.226-62.728-86.246-62.788-171.879-0.050-65.479 6.531-87.164 32.428-106.916 28.846-22.002 64.563-23.486 213.616-8.879zM612.807 490.992c91.001 44.242 140.42 144.878 119.464 243.274-12.988 60.982-62.154 123.549-117.917 150.056-83.197 39.547-175.848 23.024-241.895-43.139-114.935-115.138-71.713-303.529 82.709-360.504 19.108-7.050 31.253-8.25 73.424-7.256 49.036 1.156 51.524 1.675 84.215 17.569z" />
<glyph unicode="&#xe90b;" glyph-name="angle-down" horiz-adv-x="1051" d="M271.303 406.198l-251.65 253.448 83.347 83.347 422.482-422.393 422.482 422.393 83.382-83.382-251.668-252.862c-138.417-139.074-252.806-253.118-254.198-253.43s-115.772 113.484-254.18 252.88z" />
<glyph unicode="&#xe90c;" glyph-name="search" horiz-adv-x="1051" d="M884.629 76.056c-122.75 122.605-126.778 126.937-126.070 135.606 0.573 7.009 2.19 9.463 7.443 11.299 3.69 1.289 9.477 1.639 12.858 0.776 3.454-0.881 60.515-56.002 130.227-125.797 111.493-111.625 124.080-125.055 124.080-132.378 0-8.874-7.476-16.156-16.584-16.156-3.37 0-49.022 43.817-131.955 126.651zM410.838 102.732c-127.293 16.239-231.035 78.928-299.623 181.054-93.383 139.045-93.151 317.116 0.597 458.888 21.813 32.987 74.622 86.317 107.441 108.502 122.767 82.986 277.426 95.416 409.689 32.926 115.629-54.63 199.283-161.39 227.338-290.128 4.883-22.405 5.686-33.915 5.686-81.386s-0.804-58.981-5.686-81.386c-35.949-164.962-159.308-287.938-323.29-322.287-25.198-5.278-99.686-9.047-122.152-6.181zM529.703 149.92c48.201 10.2 104.124 35.662 143.543 65.354 29.413 22.155 68.99 63.863 87.84 92.571 29.145 44.385 50.258 97.874 57.641 146.031 5.034 32.834 3.462 106.466-2.891 135.452-9.338 42.607-30.172 90.834-56.28 130.275-19.841 29.972-69.748 79.989-99.493 99.71-42.363 28.087-96.316 50.169-139.791 57.215-127.331 20.634-242.798-15.704-330.229-103.926-30.615-30.892-49.705-57.788-68.588-96.635-29.43-60.546-38.014-97.439-38.014-163.378 0-63.858 10.127-108.476 36.934-162.722 43.147-87.31 114.632-151.624 206.207-185.521 47.674-17.647 77.809-22.21 136.974-20.739 28.257 0.703 48.978 2.68 66.147 6.314z" />
<glyph unicode="&#xe90d;" glyph-name="desktop" d="M200.511-4.027c-5.32 6.764-9.673 14.011-9.673 16.106 0 10.146 11.774 27.674 20.436 30.423 5.343 1.696 52.676 8.543 105.185 15.217l95.471 12.134 1.507 15.803c0.909 9.504-0.947 17.36-4.654 19.71-3.39 2.15-80.52 3.986-171.4 4.081-150.598 0.16-166.886 0.934-183.854 8.766-22.533 10.399-36.713 25.135-46.324 48.135-6.272 15.012-7.204 59.904-7.204 347.132v329.89l10.817 20.514c6.278 11.907 19.461 26.373 31.418 34.478l20.602 13.964h898.327l20.602-13.964c11.957-8.105 25.14-22.571 31.418-34.478l10.817-20.514v-329.89c0-287.228-0.931-332.12-7.204-347.132-9.61-23-23.791-37.735-46.324-48.135-16.969-7.832-33.257-8.608-183.854-8.766-90.88-0.096-168.010-1.933-171.4-4.081-3.707-2.349-5.562-10.207-4.654-19.71l1.507-15.803 95.471-12.134c52.509-6.674 99.935-13.55 105.39-15.282s12.549-9.496 15.762-17.254c5.124-12.372 4.695-15.642-3.492-26.609l-9.335-12.503-605.686-2.394-9.673 12.298zM948.065 180.044l10.773 10.121v321.958c0 321.4-0.019 321.973-9.798 330.825-9.485 8.584-23.433 8.867-437.039 8.867s-427.554-0.288-437.039-8.867c-9.78-8.851-9.798-9.436-9.798-330.173v-321.306l20.241-21.546h851.886l10.773 10.12zM136.868 305.394c-8.464 9.353-8.867 20.105-8.867 236.893s0.403 227.54 8.867 236.893l8.867 9.798h366.266c348.922 0 366.631-0.403 373.97-8.512 6.949-7.679 7.703-31.060 7.703-238.988 0-217.37-0.483-230.914-8.512-238.179-7.768-7.030-40.439-7.703-373.969-7.703h-365.458l-8.867 9.798zM858.433 330.838c6.427 6.427 7.315 32.078 7.315 211.449s-0.886 205.022-7.315 211.45c-6.515 6.516-44.349 7.314-346.431 7.314s-339.916-0.8-346.431-7.314c-6.427-6.427-7.315-32.078-7.315-211.45s0.886-205.022 7.315-211.449c6.515-6.516 44.349-7.314 346.431-7.314s339.916 0.8 346.431 7.314z" />
<glyph unicode="&#xe90e;" glyph-name="football" d="M455.618-61.37c-110.17 12.386-215.601 61.854-296.408 139.073-212.28 202.856-212.28 537.385 0 740.24 197.897 189.11 507.563 189.11 705.459 0 162.562-155.344 205.547-395.255 106.629-595.12-78.647-158.906-230.446-265.171-406.136-284.308-28.49-3.104-81.412-3.046-109.544 0.128zM546.501 10.147c44.615 4.204 111.364 19.606 111.364 25.697 0 1.395-10.129 7.466-22.508 13.492-30.715 14.949-29.239 13.78-25.751 20.391 15.387 29.17 81.152 133.39 85.268 135.127 11.84 4.995 150.808 33.136 152.967 30.976 1.261-1.261 3.896-12.959 5.855-25.994s4.127-24.266 4.818-24.957c6.891-6.891 51.021 69.513 67.706 117.221 11.306 32.329 20.316 75.907 23.689 114.569 3.9 44.711 2.956 45.658-21.407 21.458-10.224-10.156-19.316-18.465-20.205-18.465s-25.919 27.14-55.622 60.312c-37.131 41.468-54.005 62.15-54.005 66.194 0 13.467 15.813 153.977 17.524 155.708 1.024 1.037 13.341-0.339 27.371-3.062 14.029-2.72 26.416-4.043 27.526-2.941 2.811 2.797-17.562 29.78-41.126 54.474-35.907 37.628-76.218 67.258-123.024 90.426-30.183 14.94-68.235 29.075-70.954 26.356-0.961-0.96 4.163-12.713 11.388-26.115l13.136-24.368-5.803-3.751c-9.853-6.37-137.388-60.425-142.564-60.425-5.226 0-133.27 54.098-142.97 60.404l-5.803 3.772 13.136 24.368c7.225 13.402 12.35 25.154 11.388 26.115-2.719 2.72-40.77-11.415-70.954-26.356-30.24-14.969-58.644-33.178-84.345-54.071-32.701-26.585-84.926-85.732-80.014-90.62 1.255-1.248 13.359-0.064 27.735 2.73 14.029 2.72 26.372 4.082 27.428 3.024 1.765-1.763 17.466-141.505 17.466-155.449 0-4.335-15.661-23.595-54.005-66.417-29.703-33.172-54.79-60.312-55.75-60.312s-9.748 8.064-19.529 17.921c-9.781 9.856-18.601 17.921-19.599 17.921-4.215 0-4.838-11.906-2.172-41.505 6.846-76 32.025-149.318 71.23-207.417 12.877-19.083 17.519-24.164 19.9-21.783 0.647 0.646 2.924 11.987 5.062 25.201s4.839 24.978 6.004 26.143c1.992 1.994 141.375-26.595 152.655-31.309 4.12-1.722 69.828-105.835 85.268-135.106 3.487-6.612 4.964-5.442-25.751-20.391-12.379-6.025-22.508-12.096-22.508-13.492 0-5.812 68.795-22.020 108.518-25.568 34.095-3.043 40.899-3.056 71.967-0.128zM402.649 278.314c-1.676 1.066-18.090 47.97-36.475 104.232l-33.428 102.294 5.754 5.405c14.532 13.651 171.272 126.832 174.624 126.095 3.948-0.867 171.1-123.58 175.412-128.776 2.887-3.479-62.205-206.010-67.238-209.208-4.028-2.56-214.626-2.598-218.649-0.032z" />
<glyph unicode="&#xe90f;" glyph-name="houses" d="M-0.001 448.001v512h512v-1024h-512v512zM190.719 256.001v62.72h-125.44l-0.688-60.107c-0.378-33.059-0.128-61.592 0.576-63.406 0.995-2.592 14.566-3.152 63.409-2.614l62.143 0.685v62.72zM446.719 256.001v62.72h-125.44l-0.688-60.107c-0.378-33.059-0.128-61.592 0.576-63.406 0.995-2.592 14.566-3.152 63.409-2.614l62.143 0.685v62.72zM190.719 512.001v62.72h-125.44l-0.688-60.107c-0.378-33.059-0.128-61.592 0.576-63.406 0.995-2.592 14.566-3.152 63.409-2.614l62.143 0.685v62.72zM446.719 512.001v62.72h-125.44l-0.688-60.107c-0.378-33.059-0.128-61.592 0.576-63.406 0.995-2.592 14.566-3.152 63.409-2.614l62.143 0.685v62.72zM190.719 768.001v62.72h-125.44l-0.688-60.107c-0.378-33.059-0.128-61.592 0.576-63.406 0.995-2.592 14.566-3.152 63.409-2.614l62.143 0.685v62.72zM446.719 768.001v62.72h-125.44l-0.688-60.107c-0.378-33.059-0.128-61.592 0.576-63.406 0.995-2.592 14.566-3.152 63.409-2.614l62.143 0.685v62.72zM576.628 223.361l0.65 287.36 446.72 1.306v-576.028h-127.952l-1.325 254.72h-189.44l-1.325-254.72h-127.974l0.65 287.36zM577.108 579.366c-0.71 1.85-0.963 15.963-0.56 31.36l0.733 27.996 446.72 1.306v-64.028h-222.8c-181.689 0-223.039 0.621-224.092 3.364z" />
<glyph unicode="&#xe910;" glyph-name="network" d="M455.691-61.026c-88.354 9.934-180.024 46.101-249.781 98.548-129.787 97.581-205.809 249.224-205.809 410.529 0 183.351 97.949 352.447 257.229 444.076 191.534 110.183 431.782 84.403 597.873-64.154 106.192-94.982 168.696-235.749 168.696-379.921 0-161.306-76.022-312.948-205.809-410.529-100.801-75.788-236.537-112.699-362.399-98.548zM538.346 2.498c7.727 2.937 23.289 37.441 43.422 96.278 19.488 56.948 26.628 84.977 22.66 88.945-4.455 4.454-180.4 4.454-184.855 0-3.969-3.969 3.171-31.998 22.66-88.945 18.975-55.45 35.789-93.371 42.624-96.134 7.326-2.959 45.808-3.065 53.49-0.128zM398.21 22.535c-12.223 31.832-25.958 73.186-34.642 104.3-5.893 21.116-11.6 41.272-12.682 44.791-1.753 5.709-3.161 6.319-13.045 5.659-25.808-1.724-134.798-27.023-145.841-33.853-8.205-5.075 49.203-54.601 93.443-80.614 26.587-15.633 44.48-24.013 76.825-35.982 26.608-9.846 38.622-11.283 35.941-4.3zM660.964 26.769c33.339 12.204 50.977 20.399 77.592 36.048 43.953 25.844 101.646 75.54 93.527 80.562-10.964 6.782-120.581 32.225-146.073 33.905-10.036 0.662-11.438 0.064-13.22-5.659-1.097-3.519-6.736-23.675-12.532-44.791-8.544-31.123-21.972-71.758-34.466-104.3-2.687-7.002 7.995-5.715 35.174 4.234zM176.125 208.626c39.674 11.692 78.432 20.704 121.912 28.347 19.573 3.441 36.183 6.85 36.909 7.577s-0.605 16.578-2.959 35.225c-5.94 47.049-9.386 86.901-9.389 108.559-0.001 10.091-0.701 20.169-1.555 22.396-1.389 3.617-15.089 4.049-128.342 4.049h-126.789l1.686-18.139c2.25-24.208 10.668-62.386 19.985-90.639 13.323-40.401 47.976-106.219 55.925-106.219 1.431 0 16.109 3.98 32.618 8.845zM889.591 208.597c11.534 15.122 36.010 66.122 45.682 95.188 10.874 32.677 18.752 67.279 21.12 92.758l1.696 18.235h-126.789c-113.254 0-126.955-0.432-128.342-4.049-0.854-2.227-1.555-12.305-1.555-22.396-0.002-21.658-3.449-61.51-9.388-108.559-2.355-18.647-3.685-34.498-2.959-35.225s17.803-4.212 37.948-7.746c40.43-7.092 98.3-20.816 127.971-30.349 25.475-8.185 26.805-8.103 34.618 2.14zM483.846 255.099c37.305 0.803 82.8 0.346 101.1-1.020s34.234-1.603 35.409-0.531c4.9 4.475 17.061 108.548 17.061 146.014v15.218h-250.831l0.002-17.277c0.005-33.847 11.082-133.298 15.851-142.293 1.75-3.299 4.17-4.246 8.042-3.145 3.046 0.867 36.062 2.233 73.366 3.036zM321.044 485.374c0.854 2.227 1.555 12.305 1.555 22.396 0.003 21.658 3.449 61.51 9.389 108.559 2.355 18.647 3.604 34.579 2.777 35.406-0.825 0.825-16.86 4.182-35.629 7.456-46.74 8.154-76.276 14.913-119.682 27.389l-36.925 10.613-7.242-8.675c-10.219-12.24-38.725-71.017-47.729-98.414-9.309-28.324-17.716-66.501-19.959-90.64l-1.686-18.139h126.789c113.254 0 126.955 0.432 128.342 4.048zM637.415 496.543c0 37.415-12.144 141.407-17.061 146.103-1.174 1.123-17.684 0.877-36.688-0.544-33.668-2.518-157.913-1.014-172.079 2.083-5.803 1.267-7.406 0.442-9.426-4.873-3.856-10.143-12.945-86.576-14.736-123.928l-1.632-34.057h251.624v15.217zM956.393 499.56c-2.24 24.104-10.026 59.277-19.759 89.264-9.201 28.348-37.463 87.167-47.877 99.641l-7.199 8.623-41.143-11.665c-34.166-9.687-64.959-16.361-146.402-31.732-6.884-1.299-6.967 3.846 0.998-62.307 2.118-17.597 4.497-46.967 5.284-65.267s1.955-35.865 2.598-39.032l1.164-5.759h254.028l-1.696 18.235zM604.62 708.574c3.749 3.749-3.809 33.103-22.852 88.753-20.134 58.836-35.695 93.339-43.422 96.277-8.031 3.052-44.66 3.052-52.691 0-4.665-1.772-9.072-8.913-17.773-28.794-21.425-48.955-52.731-146.401-49.631-154.481 1.875-4.888 20.231-5.762 108.53-5.168 51.915 0.349 75.823 1.398 77.838 3.413zM351.287 724.477c1.056 3.519 6.66 23.675 12.457 44.791 8.544 31.123 21.971 71.758 34.467 104.3 2.451 6.384-6.608 5.885-28.454-1.568-44.306-15.116-85.441-36.587-122.19-63.779-26.995-19.974-58.063-47.841-58.063-52.079 0-5.305 57.036-21.18 118.352-32.943 37.496-7.193 40.923-7.092 43.431 1.277zM709.172 722.106c59.448 10.751 125.324 28.561 125.324 33.884 0 8.744-65.044 59.94-104.411 82.182-35.923 20.296-100.844 45.286-104.074 40.060-0.704-1.136 3.855-15.945 10.127-32.908 11.202-30.296 34.55-108.046 34.55-115.053 0-4.623 4.742-13.471 7.219-13.471 1.056 0 15.125 2.387 31.264 5.306z" />
<glyph unicode="&#xe911;" glyph-name="shoe" d="M606.783 14.658c-38.214 7.861-63.531 22.285-79.153 45.096-8.123 11.861-39.671 71.107-70.106 131.657-64.123 127.571-100.318 184.166-145.523 227.542-40.376 38.742-68.080 51.443-147.79 67.754-74.582 15.261-91.637 21.791-117.173 44.862-30.489 27.545-46.648 72.479-47.025 130.768-0.218 33.636 2.3 54.449 8.866 73.293 21.103 60.567 97.177 149.223 128.046 149.223 21.331 0 41.28-12.44 85.042-53.033 86.801-80.514 107.621-103.641 162.774-180.809 92.882-129.957 162.468-201.18 224.341-229.618 14.236-6.543 54.289-17.174 89.007-23.624 89.423-16.613 110.614-23.151 132.781-40.965 24.087-19.357 54.814-25.771 123.461-25.771 27.963 0 54.254-1.31 58.426-2.91 18.524-7.108 13.204-107.296-8.935-168.29-19.87-54.741-31.964-63.203-173.382-121.307l-64.283-26.412-69.227-0.88c-38.075-0.483-78.641 1.056-90.146 3.423zM736.748 338.907c20.513 9.734 30.149 20.56 23.88 26.829-2.538 2.538-32.372 9.244-66.298 14.903-72.094 12.026-102.255 24.434-152.068 62.564-49.895 38.192-85.023 78.068-152.591 173.218-57.607 81.122-102.080 134.923-111.53 134.923-5.973 0 19.448-46.786 56.991-104.888 32.924-50.953 112.357-146.919 168.486-203.552 92.261-93.090 176.718-130.766 233.13-103.997zM85.79 18.274c-0.25 2.038-0.128 35.973 0.272 75.408 1.25 123.767-12.848 286.761-31.915 368.976-4.21 18.154-6.788 33.875-5.728 34.935s18.349-3.54 38.42-10.222c20.071-6.682 47.24-13.718 60.374-15.636 24.164-3.529 33.148-12.152 24.302-23.325-21.596-27.278-30.876-116.22-30.876-295.914v-137.931h-27.196c-14.958 0-27.401 1.667-27.65 3.708z" />
<glyph unicode="&#xe912;" glyph-name="sofa" d="M18.576 206.45c-4.567 2.252-10.615 7.833-13.44 12.404-4.991 8.076-5.136 12.62-5.136 161.306 0 148.926 0.128 153.218 5.16 161.345 8.955 14.489 17.163 16.575 65.24 16.575 34.415 0 44.481-0.823 51.645-4.223 17.649-8.375 17.334-6.43 18.755-115.98l1.28-98.677h739.84l1.28 98.677c1.421 109.55 1.107 107.606 18.755 115.98 7.164 3.4 17.23 4.223 51.645 4.223 48.077 0 56.285-2.085 65.24-16.575 5.023-8.128 5.16-12.419 5.16-161.345s-0.128-153.218-5.16-161.345c-9.008-14.575-17.044-16.575-66.604-16.575-51.354 0-58.102 2.236-66.92 22.17l-4.915 11.11h-736.801l-4.915-11.11c-3.011-6.806-8.38-13.252-13.862-16.64-8.281-5.118-12.26-5.525-53.445-5.471-35.523 0.048-46.173 0.884-52.802 4.152zM177.655 374.808c-0.768 2.006-1.024 20.358-0.566 40.781 0.797 35.493 1.117 37.44 7.232 44.062 12.945 14.013 12.235 13.948 152.918 13.948 121.055 0 130.645-0.323 138.764-4.678 15.721-8.431 18.264-17.062 17.484-59.322l-0.685-37.12-156.873-0.66c-133.826-0.563-157.078-0.125-158.273 2.988zM530.935 374.808c-0.768 2.006-1.024 20.358-0.566 40.781 0.797 35.493 1.117 37.44 7.232 44.062 12.94 14.009 12.283 13.948 152.34 13.948 123.308 0 129.929-0.237 139.25-4.992 15.915-8.119 18.435-16.644 17.601-59.544l-0.71-36.584-156.873-0.66c-133.826-0.563-157.078-0.125-158.273 2.988zM178.122 501.131c-0.816 0.815-1.482 38.268-1.482 83.229 0 90.8 0.563 94.344 16.575 104.24 8.092 5.001 12.469 5.16 142.145 5.16s134.053-0.16 142.145-5.16c16.028-9.906 16.575-13.367 16.575-104.965v-82.472l-7.040 2.028c-3.872 1.115-69.742 2.44-146.377 2.943-116.564 0.766-141.112 0.31-150.198-2.785-5.973-2.035-11.528-3.034-12.343-2.218zM531.402 501.131c-0.816 0.815-1.482 38.268-1.482 83.229 0 90.8 0.563 94.344 16.575 104.24 8.092 5.001 12.469 5.16 142.145 5.16s134.053-0.16 142.145-5.16c16.028-9.906 16.575-13.367 16.575-104.965v-82.472l-7.040 2.028c-3.872 1.115-69.742 2.44-146.377 2.943-116.564 0.766-141.112 0.31-150.198-2.785-5.973-2.035-11.528-3.034-12.343-2.218z" />
<glyph unicode="&#xe913;" glyph-name="car" d="M171.976 165.12c-24.496 8.732-46.882 27.972-66.571 57.214-14.493 21.526-19.056 25.293-30.64 25.293-18.457 0-39.147 13.62-58.58 38.564l-16.186 20.775v186.909l16.857 16.006c16.091 15.279 46.915 28.653 93.172 40.427 16.906 4.303 22.428 9.71 55.898 54.733 20.426 27.477 48.462 66.127 62.302 85.888s30.352 38.293 36.694 41.183c8.149 3.713 56.59 5.254 165.143 5.254 132.375 0 155.524-0.989 167.446-7.154 7.609-3.935 59.046-51.060 114.304-104.723 77.521-75.282 104.056-98.438 116.171-101.375 8.636-2.093 41.402-10.022 72.813-17.619 63.146-15.271 106.956-32.857 116.776-46.877 4.958-7.079 6.425-25.67 6.425-81.418v-72.244l-24.763-30.278c-13.62-16.653-31.163-41.298-38.985-54.765-15.833-27.26-45.563-50.133-75.796-58.313-24.473-6.621-63.852-2.736-85.814 8.47-19.258 9.825-48.46 39.949-60.488 62.4l-7.584 14.156h-392.094l-11.723-18.922c-18.64-30.085-33.246-43.621-61.849-57.321-30.208-14.468-63.6-16.719-92.928-6.264zM247.478 236.337c28.663 18.781 37.589 63.235 18.451 91.883-36.004 53.895-114.485 28.868-114.538-36.526-0.038-50.615 54.962-82.303 96.087-55.357zM881.6 233.62c18.852 10.031 35.401 37.392 35.401 58.528 0 33.39-32.399 66.783-64.795 66.783-15.839 0-39.082-14.316-52.375-32.261-6.274-8.47-9.057-19.075-9.057-34.522 0-25.111 8.879-40.463 32.832-56.765 17.89-12.176 37.314-12.766 57.993-1.763zM416.278 590.444v73.461l-56.809 1.245c-32.837 0.72-60.405-0.678-65.332-3.315-9.494-5.081-77.505-96.748-88.319-119.039-5.71-11.771-5.907-15.471-1.129-21.228 5.002-6.027 19.748-6.811 108.688-5.779l102.901 1.194v73.461zM724.253 521.85c3.325 8.667-102.341 116.836-130.482 133.574-17.702 10.529-21.006 10.898-86.817 9.713l-68.415-1.232-1.234-68.822c-0.679-37.852-0.24-71.41 0.973-74.574 1.74-4.533 31.983-5.752 142.73-5.752 124.451 0 140.834 0.81 143.245 7.093z" />
<glyph unicode="&#xe914;" glyph-name="angle-up" horiz-adv-x="1051" d="M271.303 489.802l-251.65-253.448 83.347-83.347 422.482 422.393 422.482-422.393 83.382 83.382-251.668 252.862c-138.417 139.074-252.806 253.118-254.198 253.43s-115.772-113.484-254.18-252.88z" />
<glyph unicode="&#xe915;" glyph-name="angle-right" horiz-adv-x="1051" d="M567.302 702.197l-253.448 251.65-83.347-83.347 422.393-422.482-422.393-422.482 83.382-83.382 252.862 251.668c139.074 138.417 253.118 252.806 253.43 254.198s-113.484 115.772-252.88 254.18z" />
<glyph unicode="&#xe916;" glyph-name="angle-left" horiz-adv-x="1051" d="M483.698 702.197l253.448 251.65 83.347-83.347-422.393-422.482 422.393-422.482-83.382-83.382-252.862 251.668c-139.074 138.417-253.118 252.806-253.43 254.198s113.484 115.772 252.88 254.18z" />
</font>
</defs>
</svg>
